HIERARCHY
ROOT root     
{
	OFFSET 0.0000 0.0000 0.0000
	CHANNELS 6 Xposition Yposition Zposition Zrotation Yrotation Xrotation
	JOINT pelvis   
	{
		OFFSET 0.0000 0.0000 0.0000
		CHANNELS 3 Zrotation Yrotation Xrotation
		JOINT thorax   
		{
			OFFSET 0.0000 23.0750 -5.0000
			CHANNELS 3 Zrotation Yrotation Xrotation
			JOINT rclavicle
			{
				OFFSET 0.0000 28.0009 0.0000
				CHANNELS 3 Zrotation Yrotation Xrotation
				JOINT rhumerus 
				{
					OFFSET -18.5725 5.5939 0.0000
					CHANNELS 3 Zrotation Yrotation Xrotation
					JOINT rradius  
					{
						OFFSET -24.8459 0.0000 0.0000
						CHANNELS 3 Zrotation Yrotation Xrotation
						JOINT rhand    
						{
							OFFSET -24.5477 0.0000 0.0000
							CHANNELS 3 Zrotation Yrotation Xrotation
							End Site
							{
								OFFSET -8.1826 0.0000 0.0000
							}
						}
					}
				}
			}
			JOINT lclavicle
			{
				OFFSET 0.0000 28.0009 0.0000
				CHANNELS 3 Zrotation Yrotation Xrotation
				JOINT lhumerus 
				{
					OFFSET 18.5725 5.5939 0.0000
					CHANNELS 3 Zrotation Yrotation Xrotation
					JOINT lradius  
					{
						OFFSET 24.8459 0.0000 0.0000
						CHANNELS 3 Zrotation Yrotation Xrotation
						JOINT lhand    
						{
							OFFSET 24.5477 0.0000 0.0000
							CHANNELS 3 Zrotation Yrotation Xrotation
							End Site
							{
								OFFSET 8.1826 0.0000 0.0000
							}
						}
					}
				}
			}
			JOINT head     
			{
				OFFSET 0.0000 35.2030 0.0000
				CHANNELS 3 Zrotation Yrotation Xrotation
				End Site
				{
					OFFSET 0.0000 11.7343 0.0000
				}
			}
		}
		JOINT rfemur   
		{
			OFFSET -8.2817 0.0000 0.0000
			CHANNELS 3 Zrotation Yrotation Xrotation
			JOINT rtibia   
			{
				OFFSET 0.0000 -43.3627 0.0000
				CHANNELS 3 Zrotation Yrotation Xrotation
				JOINT rfoot    
				{
					OFFSET 0.0000 -38.2947 0.0000
					CHANNELS 3 Zrotation Yrotation Xrotation
					JOINT rtoes    
					{
						OFFSET 0.0000 0.0000 16.6054
						CHANNELS 3 Zrotation Yrotation Xrotation
						End Site
						{
							OFFSET 0.0000 0.0000 5.5351
						}
					}
				}
			}
		}
		JOINT lfemur   
		{
			OFFSET 8.2817 0.0000 0.0000
			CHANNELS 3 Zrotation Yrotation Xrotation
			JOINT ltibia   
			{
				OFFSET 0.0000 -43.3627 0.0000
				CHANNELS 3 Zrotation Yrotation Xrotation
				JOINT lfoot    
				{
					OFFSET 0.0000 -38.2947 0.0000
					CHANNELS 3 Zrotation Yrotation Xrotation
					JOINT ltoes    
					{
						OFFSET 0.0000 0.0000 16.6054
						CHANNELS 3 Zrotation Yrotation Xrotation
						End Site
						{
							OFFSET 0.0000 0.0000 5.5351
						}
					}
				}
			}
		}
	}
}
MOTION
Frames: 19
Frame Time: .0333333
-79.823 78.365 -4.8532 153.904 87.645 170.03 0 -0 0 -1.00789 -13.092 19.0578 22.8884 -12.5256 0.000142836 55.5936 -17.333 -0.125244 8.0851e-07 63.2896 4.98267e-07 -3.55949 -1.19887 0.0372991 -16.7272 11.4525 1.81656e-05 -45.8781 3.54611 1.37013 -180 -85.9456 180 -2.36084 6.80036 -0.140298 2.97233 -0.3722 -8.12162 5.99452 -4.72027 -52.3656 -0 -0 49.0612 -8.57883e-07 -6.50084 -1.65638 0.188693 -9.94632e-08 -1.05249 1.38593 9.30213 -13.2075 -0 -0 53.8835 4.87436e-07 3.43833 -6.25394 -0.375008 -2.28289e-06 -70.8993 
-78.974 78.307 -4.6894 154.675 87.5379 170.827 0 -0 0 -0.619293 -13.211 18.9932 23.0087 -12.4153 5.32243e-06 55.5477 -16.9256 -0.310059 0 63.1625 0 -3.67505 -1.23538 0.0395986 -16.7367 11.3774 -1.16047e-05 -46.323 3.99354 1.43664 180 -86.6672 -180 -2.29142 6.77332 -0.135603 2.92195 -0.569489 -8.16644 6.10795 -4.80208 -52.1521 -0 -0 49.8506 -6.67235e-07 -6.60987 -2.79042 0.323192 -9.00655e-08 -1.01819 1.72125 9.17237 -13.0553 -0 -0 54.427 -2.07891e-06 3.04849 -5.2611 -0.279801 4.19474e-06 -72.1589 
-78.149 78.262 -4.5272 155.209 87.3885 171.415 0 -0 0 -0.23496 -13.3075 18.9037 23.1353 -12.2993 7.74778e-05 55.5194 -16.4816 -0.508114 8.02656e-07 63.039 4.92246e-07 -3.80409 -1.27622 0.0424004 -16.7095 11.2818 -3.4213e-05 -46.8208 4.42664 1.5401 -180 -87.4676 180 -2.20755 6.75003 -0.130198 2.90076 -0.798394 -8.1948 6.21955 -4.88911 -51.928 -0 -0 50.5307 7.18185e-07 -6.7462 -3.87099 0.457488 -5.11239e-08 -1.11038 2.02891 9.02565 -13.0153 -0 -0 55.042 2.10958e-06 2.68086 -4.19906 -0.196402 -1.01436e-06 -73.2762 
-77.347 78.227 -4.3677 155.44 87.2768 171.746 0 -0 0 0.138977 -13.3769 18.796 23.2679 -12.1763 -6.76052e-05 55.5156 -16.0109 -0.720843 -6.92606e-07 62.9344 -1.13169e-06 -3.94308 -1.31923 0.0454008 -16.6427 11.1682 -9.19603e-05 -47.3649 4.84048 1.68118 180 -88.364 -180 -2.11598 6.72996 -0.124399 2.90627 -1.05579 -8.20991 6.3161 -4.97042 -51.6994 -0 -0 51.1182 -5.29684e-06 -6.90054 -4.87432 0.589195 -1.36616e-08 -1.23591 2.30254 8.86669 -13.0872 -0 -0 55.7282 -1.43425e-06 2.33064 -3.05633 -0.124302 1.99527e-07 -74.1871 
-76.569 78.203 -4.2115 155.4 87.1236 171.827 0 -0 0 0.499668 -13.415 18.6752 23.399 -12.0451 5.2249e-05 55.5361 -15.5187 -0.945812 -4.87919e-07 62.8559 -7.9845e-07 -4.08948 -1.36131 0.0486016 -16.5389 11.0392 -3.99976e-05 -47.9441 5.23226 1.8589 -180 -89.3431 180 -2.02355 6.71225 -0.118702 2.93509 -1.33664 -8.21657 6.38957 -5.03716 -51.4748 -0 -0 51.6315 -2.16732e-06 -7.06257 -5.78655 0.715709 3.97343e-07 -1.31238 2.53923 8.70216 -13.2661 -0 -0 56.4882 -4.29845e-07 1.99424 -1.82386 -0.0634997 -4.46437e-07 -74.8104 
-75.815 78.189 -4.0592 155.043 86.9896 171.62 0 -0 0 0.842142 -13.4239 18.5496 23.5223 -11.9089 5.92598e-06 55.5871 -15.003 -1.17388 0 62.8068 0 -4.24136 -1.39675 0.0516977 -16.4019 10.8977 0.000100569 -48.5474 5.6026 2.06995 4.24565e-05 -89.6573 -4.2976e-05 -1.93596 6.69741 -0.113304 2.98459 -1.63346 -8.22015 6.43484 -5.08375 -51.259 -0 -0 52.0875 1.51973e-06 -7.22101 -6.60128 0.83449 -4.11452e-08 -1.30869 2.736 8.53914 -13.5461 -0 -0 57.3176 -7.00257e-08 1.6762 -0.505008 -0.0148002 -8.97091e-08 -75.0533 
-75.083 78.185 -3.9094 154.56 86.8757 171.314 0 -0 0 1.17617 -13.3991 18.4252 23.6387 -11.7596 -0.000103962 55.6609 -14.4823 -1.41109 0 62.8059 0 -4.39482 -1.42898 0.0547978 -16.2391 10.7462 2.18271e-05 -49.1672 5.94608 2.31702 -8.95613e-06 -88.4386 8.71741e-06 -1.85585 6.68465 -0.108397 3.04896 -1.94335 -8.22442 6.45989 -5.10676 -51.0555 -0 -0 52.4985 9.65367e-07 -7.36694 -7.32466 0.944318 -3.66099e-07 -1.16616 2.90302 8.39243 -13.9256 -0 -0 58.2192 -3.30459e-08 1.37621 0.899988 0.0215996 2.18962e-07 -74.8122 
-74.373 78.192 -3.7636 153.875 86.7512 170.813 0 -0 0 1.48945 -13.3462 18.3115 23.7389 -11.6006 6.13059e-05 55.7618 -13.94 -1.6361 7.97997e-07 62.8377 4.87459e-07 -4.54988 -1.44699 0.0574995 -16.0583 10.5899 3.5097e-05 -49.7847 6.26778 2.59505 -2.28399e-06 -87.2605 2.17724e-06 -1.78512 6.67596 -0.104101 3.12965 -2.25324 -8.23338 6.45994 -5.11003 -50.8629 -0 -0 52.8705 1.55509e-06 -7.49029 -7.9587 1.04291 1.08374e-07 -0.983311 3.03105 8.2653 -14.3913 -0 -0 59.1802 -1.76345e-07 1.1255 2.35308 0.0462002 -2.35004e-07 -73.9838 
-73.683 78.209 -3.6191 153.172 86.6425 170.309 0 -0 0 1.79752 -13.2669 18.214 23.8261 -11.4239 -7.20163e-06 55.8793 -13.3958 -1.85515 0 62.9217 0 -4.70217 -1.45631 0.0597996 -15.8668 10.4283 -2.3287e-05 -50.3905 6.56627 2.90936 7.94063e-07 -86.0163 -1.3933e-06 -1.71991 6.67027 -0.100201 3.22107 -2.56298 -8.24615 6.45342 -5.09726 -50.6822 -0 -0 53.2083 5.17641e-06 -7.58701 -8.52167 1.13071 6.05387e-08 -0.735205 3.13636 8.17385 -14.9435 -0 -0 60.2045 2.77773e-07 0.94 3.82155 0.062699 -2.45868e-07 -72.4681 
-73.013 78.236 -3.4773 152.425 86.5405 169.764 0 -0 0 2.09076 -13.1656 18.1401 23.8949 -11.233 8.30733e-05 56.0097 -12.8363 -2.04836 0 63.0458 0 -4.85241 -1.45015 0.0614028 -15.6751 10.2668 -4.00939e-05 -50.9699 6.84397 3.26083 2.21585e-06 -84.733 -2.42953e-06 -1.65735 6.66988 -0.0966033 3.32618 -2.86247 -8.26249 6.44038 -5.0791 -50.5058 -0 -0 53.5102 -5.9776e-06 -7.65109 -9.02336 1.20704 7.76003e-08 -0.524901 3.21214 8.12234 -15.5656 -0 -0 61.2751 -1.25746e-07 0.863292 5.24758 0.0790007 -1.95883e-07 -70.2137 
-72.359 78.274 -3.3371 151.703 86.4406 169.241 0 -0 0 2.37375 -13.0484 18.0907 23.9479 -11.0273 -1.79134e-05 56.1454 -12.2649 -2.20895 -4.96353e-07 63.2098 -8.06651e-07 -4.99976 -1.42935 0.0624017 -15.4898 10.1063 -0.000101401 -51.5088 7.10262 3.65567 -1.96758e-06 -83.4198 1.75377e-06 -1.59111 6.6749 -0.0928002 3.4448 -3.15011 -8.27794 6.43195 -5.0659 -50.3286 -0 -0 53.777 -2.83861e-06 -7.68177 -9.4794 1.27258 -8.77565e-08 -0.384104 3.26393 8.11959 -16.2537 -0 -0 62.3879 8.11768e-07 0.930899 6.57238 0.106601 -2.71353e-08 -67.2166 
-71.721 78.323 -3.1982 151.023 86.3655 168.762 0 -0 0 2.64734 -12.9178 18.0691 23.9848 -10.8074 -4.56151e-05 56.2793 -11.6814 -2.32901 0 63.4115 0 -5.14343 -1.3947 0.0625991 -15.3162 9.9481 7.32582e-05 -51.9974 7.34334 4.10139 -2.34115e-06 -82.0955 2.03857e-06 -1.51593 6.68503 -0.0885012 3.57741 -3.42366 -8.28534 6.43541 -5.0681 -50.1475 -0 -0 54.0059 3.52048e-06 -7.67954 -9.90027 1.32814 2.53737e-07 -0.361502 3.29309 8.17104 -17.0015 -0 -0 63.5289 -1.66722e-06 1.17968 7.73491 0.158796 -2.98305e-06 -63.5416 
-71.097 78.382 -3.0607 150.406 86.2894 168.34 0 -0 0 2.91024 -12.7771 18.0745 24.0076 -10.573 -1.77004e-05 56.4043 -11.0877 -2.40251 0 63.6435 0 -5.28252 -1.34803 0.0622003 -15.1614 9.79367 -1.31405e-05 -52.4264 7.56732 4.60621 0 -80.7533 0 -1.42751 6.70012 -0.0836003 3.72556 -3.68282 -8.27719 6.45378 -5.0957 -49.9549 -0 -0 54.1911 4.34551e-06 -7.64612 -10.2913 1.37388 -3.37518e-08 -0.498703 3.29812 8.27897 -17.8018 -0 -0 64.6839 -2.71783e-06 1.63976 8.68271 0.247595 1.84584e-06 -59.331 
-70.486 78.452 -2.9247 149.838 86.2113 167.957 0 -0 0 3.16167 -12.6277 18.1023 24.0165 -10.3275 7.16302e-05 56.5156 -10.4846 -2.42391 -5.1365e-07 63.9071 -8.23501e-07 -5.41669 -1.29129 0.0610995 -15.0249 9.64357 2.87212e-05 -52.7916 7.77583 5.17849 2.09833e-06 -79.4101 -2.52704e-06 -1.32492 6.71912 -0.0778009 3.88938 -3.92833 -8.24463 6.48903 -5.15621 -49.747 -0 -0 54.3342 -1.8552e-06 -7.58365 -10.6541 1.41 2.36173e-08 -0.817597 3.27812 8.44308 -18.6458 -0 -0 65.8378 7.84447e-07 2.32844 9.37722 0.3796 -2.07926e-06 -54.8002 
-69.886 78.531 -2.7912 149.255 86.1329 167.55 0 -0 0 3.39503 -12.4731 18.153 24.0145 -10.0756 -1.81612e-05 56.6059 -9.86998 -2.38682 0 64.1931 0 -5.54515 -1.22643 0.0594022 -14.9087 9.50168 -1.3753e-05 -53.0875 7.96679 5.82624 -1.60323e-06 -78.0641 1.29974e-06 -1.2123 6.74158 -0.0714001 4.06907 -4.16023 -8.17986 6.53703 -5.25521 -49.5236 -0 -0 54.4365 -5.80827e-06 -7.49346 -10.9873 1.43606 3.54821e-07 -1.31414 3.22655 8.65869 -19.5277 -0 -0 66.9682 -2.27562e-06 3.24746 9.79889 0.553302 -6.80445e-06 -50.2106 
-69.296 78.619 -2.6601 148.683 86.0503 167.144 0 -0 0 3.61614 -12.3091 18.2179 24.0001 -9.81594 -9.49196e-06 56.6744 -9.25553 -2.29732 0 64.5094 0 -5.66612 -1.15839 0.0572983 -14.8131 9.36293 -1.14338e-05 -53.3167 8.14645 6.55314 -1.03049e-06 -76.7216 8.15607e-07 -1.0948 6.76543 -0.0647008 4.25973 -4.38277 -8.07447 6.5979 -5.39281 -49.2828 -0 -0 54.4974 2.64437e-06 -7.37841 -11.2826 1.45133 6.4106e-07 -1.98807 3.14491 8.91962 -20.4452 -0 -0 68.0634 -9.38772e-06 4.37671 9.9379 0.756786 5.04764e-06 -45.7762 
-68.717 78.716 -2.5329 148.028 85.9831 166.656 0 -0 0 3.81869 -12.1348 18.2932 23.9719 -9.55373 5.1362e-06 56.7196 -8.64096 -2.1531 0 64.8466 0 -5.77928 -1.089 0.0550011 -14.7352 9.23134 -3.36289e-05 -53.4797 8.31312 7.36193 1.03465e-06 -75.3908 -1.33896e-06 -0.984297 6.79042 -0.0583999 4.45769 -4.59625 -7.924 6.66297 -5.56825 -49.0277 -0 -0 54.5267 -3.43093e-05 -7.23779 -11.5324 1.45452 -2.73186e-07 -2.81475 3.02651 9.21632 -21.3907 -0 -0 69.1026 4.84603e-06 5.68013 9.80252 0.97011 2.95417e-06 -41.6674 
-68.146 78.82 -2.4104 147.272 85.9025 166.056 0 -0 0 4.0004 -11.9483 18.3753 23.9287 -9.29165 -8.02992e-05 56.7444 -8.02934 -1.95695 8.57577e-07 65.2066 5.48515e-07 -5.882 -1.0208 0.0524004 -14.6727 9.10802 3.09069e-05 -53.5849 8.46866 8.25043 0 -74.0696 0 -0.895599 6.81593 -0.0533003 4.65723 -4.80115 -7.72583 6.72519 -5.77678 -48.7619 -0 -0 54.5292 1.40789e-05 -7.0703 -11.7323 1.44468 -1.95576e-06 -3.75857 2.86788 9.53927 -22.3613 -0 -0 70.0703 8.14456e-06 7.10406 9.40865 1.16719 4.76025e-06 -37.9863 
-67.585 78.93 -2.2935 146.366 85.832 165.305 0 -0 0 4.1624 -11.7457 18.459 23.8656 -9.03114 5.86159e-05 56.7478 -7.42727 -1.71442 -7.91357e-07 65.5914 -1.22813e-06 -5.97236 -0.956205 0.0498996 -14.6226 8.99399 -4.68375e-05 -53.6396 8.61616 9.21387 8.55004e-07 -72.7685 -1.16032e-06 -0.8434 6.8412 -0.0504002 4.84978 -4.99809 -7.4799 6.77968 -6.01142 -48.4931 -0 -0 54.5146 -2.7322e-05 -6.87486 -11.8707 1.42083 1.82997e-06 -4.79715 2.66772 9.87902 -23.3537 -0 -0 70.9557 -1.80637e-06 8.58171 8.78157 1.31983 1.04026e-05 -34.7786 
